<?xml version="1.0" encoding="utf-8"?>
<!-- Generator: Adobe Illustrator 24.1.2, SVG Export Plug-In . SVG Version: 6.00 Build 0)  -->
<svg version="1.1" id="Layer_1" xmlns="http://www.w3.org/2000/svg" xmlns:xlink="http://www.w3.org/1999/xlink" x="0px" y="0px"
	 viewBox="0 0 26.62 21.96" style="enable-background:new 0 0 26.62 21.96;" xml:space="preserve">
<style type="text/css">
	.st0{fill:#BF59A2;}
	.st1{fill:#FFFFFF;}
</style>
<path id="Mail" class="st1" d="M6.17,0L10,4.41l-2.7,5.67L13,8.99l2.6,6.67l11.03-15.4L6.17,0z M5.47,9.55l1.06-0.93L5.16,9.09
	L5.02,8.87l0.57-0.58L4.84,8.61C1.86,9.91-0.05,12.87,0,16.12c-0.01,2.18,0.84,4.28,2.37,5.84C1.72,20.74,1.38,19.38,1.39,18
	c-0.04-3.25,1.84-6.22,4.78-7.58l0.35-0.91L5.69,9.9L5.45,9.57L5.47,9.55z M10.31,7.23l1.77-3.33l10.43-2.6L10.31,7.23z"/>
</svg>
